<?xml version="1.0" encoding="utf-8"?>
<!-- Generator: Adobe Illustrator 16.0.0, SVG Export Plug-In . SVG Version: 6.00 Build 0)  -->
<!DOCTYPE svg PUBLIC "-//W3C//DTD SVG 1.1//EN" "http://www.w3.org/Graphics/SVG/1.1/DTD/svg11.dtd">
<svg version="1.1" id="圖層_1" xmlns="http://www.w3.org/2000/svg" xmlns:xlink="http://www.w3.org/1999/xlink" x="0px" y="0px"
	 width="35px" height="40px" viewBox="0 0 35 40" enable-background="new 0 0 35 40" xml:space="preserve">
<g>
	<g opacity="0.7">
		<path fill="#CCCCCC" d="M1.405,30.592l-0.426-1.369c5.39-3.348,8.369-8.22,8.94-14.611H7.791c-4.543,0-7.098-2.435-7.663-7.307
			C0.693,2.74,3.248,0.306,7.791,0c6.241,0.611,8.655,5.479,7.237,14.609C12.473,23.441,7.931,28.768,1.405,30.592z"/>
	</g>
	<g opacity="0.7">
		<path fill="#CCCCCC" d="M20.855,30.592l-0.426-1.369c5.391-3.348,8.368-8.22,8.938-14.611H27.24c-4.543,0-7.098-2.435-7.663-7.307
			C20.143,2.74,22.697,0.306,27.24,0c6.238,0.611,8.652,5.479,7.234,14.609C31.926,23.441,27.383,28.768,20.855,30.592z"/>
	</g>
</g>
</svg>
