<?xml version="1.0" encoding="utf-8"?>
<!-- Generator: Adobe Illustrator 16.0.0, SVG Export Plug-In . SVG Version: 6.00 Build 0)  -->
<!DOCTYPE svg PUBLIC "-//W3C//DTD SVG 1.1//EN" "http://www.w3.org/Graphics/SVG/1.1/DTD/svg11.dtd">
<svg version="1.1" id="圖層_1" xmlns="http://www.w3.org/2000/svg" xmlns:xlink="http://www.w3.org/1999/xlink" x="0px" y="0px"
	 width="35px" height="40px" viewBox="0 0 35 40" enable-background="new 0 0 35 40" xml:space="preserve">
<g>
	<g opacity="0.7">
		<path fill="#CCCCCC" d="M33.596-4.5l0.426,1.369c-5.39,3.348-8.369,8.219-8.938,14.611h2.129c4.543,0,7.099,2.435,7.663,7.307
			c-0.564,4.564-3.12,6.998-7.663,7.306c-6.239-0.612-8.653-5.479-7.235-14.61C22.527,2.65,27.068-2.674,33.596-4.5z"/>
	</g>
	<g opacity="0.7">
		<path fill="#CCCCCC" d="M14.144-4.5l0.426,1.369C9.18,0.217,6.2,5.088,5.629,11.481h2.129c4.543,0,7.097,2.434,7.663,7.306
			c-0.566,4.564-3.12,6.999-7.663,7.306c-6.241-0.61-8.655-5.479-7.238-14.611C3.075,2.65,7.618-2.674,14.144-4.5z"/>
	</g>
</g>
</svg>
